<svg viewBox="0 0 139 40" fill="none" xmlns="http://www.w3.org/2000/svg">
    <path d="M137.35 24.9763C137.327 26.5967 137.01 28.1246 136.402 29.5598C135.793 30.9719 134.927 32.2219 133.804 33.3099C132.68 34.3979 131.311 35.2545 129.696 35.8795C128.105 36.4814 126.279 36.7823 124.219 36.7823C122.136 36.7823 120.205 36.4698 118.426 35.8448C116.648 35.2197 115.091 34.3285 113.757 33.1711C112.446 31.9905 111.428 30.5668 110.702 28.9001C109.977 27.2333 109.614 25.3583 109.614 23.2749C109.614 21.1915 109.977 19.3164 110.702 17.6497C111.451 15.9829 112.493 14.5709 113.827 13.4134C115.161 12.2328 116.729 11.33 118.532 10.705C120.334 10.08 122.312 9.76744 124.465 9.76744C127.157 9.76744 129.509 10.2073 131.522 11.0869C133.558 11.9434 135.197 13.124 136.437 14.6287C137.678 16.1334 138.438 17.858 138.719 19.8025H134.015C133.757 18.5756 133.195 17.5108 132.329 16.608C131.487 15.7052 130.398 15.0107 129.064 14.5246C127.73 14.0384 126.185 13.7954 124.43 13.7954C122.37 13.7954 120.58 14.1773 119.058 14.9412C117.56 15.682 116.39 16.7584 115.547 18.1705C114.728 19.5826 114.319 21.2841 114.319 23.2749C114.319 25.2657 114.74 26.9787 115.583 28.4139C116.449 29.8492 117.666 30.9488 119.234 31.7127C120.802 32.4766 122.651 32.8585 124.781 32.8585C126.841 32.8585 128.643 32.5113 130.188 31.8168C131.733 31.1224 132.95 30.1617 133.839 28.9348C134.728 27.6847 135.208 26.2379 135.278 24.5944L137.35 24.9763ZM125.694 26.9556V23.4832H139V40H134.998V25.4972L136.086 26.9556H125.694Z" fill="#166CCE"/>
    <path fill-rule="evenodd" clip-rule="evenodd" d="M42.0482 9.76744H36.2177L38.3167 16.8244V36.7442H43.914L43.9607 19.5163L42.0482 9.76744Z" fill="#166CCE"/>
    <path d="M51.7204 9.76744C53.4477 9.76744 55.0993 10.0903 56.618 10.6787V19.5349H51.4871V14.8869C48.2896 14.9738 45.187 17.5411 43.8456 20.2326L38.7148 19.5349C40.3345 13.8951 45.544 9.76744 51.7204 9.76744Z" fill="#166CCE"/>
    <path d="M22.8557 34.5L26.5335 30.9325L35.6829 39.5349H27.9866L22.8557 34.5Z" fill="#166CCE"/>
    <path d="M69.9664 36.7442C67.282 36.7442 64.9227 36.1778 62.8884 35.0451C60.8542 33.9124 59.2708 32.3405 58.1383 30.3294C57.0058 28.2952 56.4396 25.9373 56.4396 23.2558C56.4396 20.5743 57.0058 18.228 58.1383 16.2169C59.2708 14.1827 60.8542 12.5992 62.8884 11.4665C64.9227 10.3338 67.282 9.76745 69.9664 9.76745C72.6508 9.76745 75.0102 10.3338 77.0444 11.4665C79.0787 12.5992 80.6621 14.1827 81.7946 16.2169C82.9271 18.228 83.4933 20.5743 83.4933 23.2558C83.4933 25.9373 82.9271 28.2952 81.7946 30.3294C80.6621 32.3405 79.0787 33.9124 77.0444 35.0451C75.0102 36.1778 72.6508 36.7442 69.9664 36.7442ZM69.9664 32.6526C71.8749 32.6526 73.5212 32.2712 74.9053 31.5083C76.2895 30.7455 77.359 29.659 78.114 28.2489C78.89 26.8388 79.2779 25.1745 79.2779 23.2558C79.2779 21.3372 78.89 19.6728 78.114 18.2627C77.359 16.8526 76.2895 15.7661 74.9053 15.0033C73.5212 14.2405 71.8749 13.859 69.9664 13.859C68.079 13.859 66.4327 14.2405 65.0276 15.0033C63.6434 15.7661 62.5634 16.8526 61.7874 18.2627C61.0324 19.6728 60.6549 21.3372 60.6549 23.2558C60.6549 25.1745 61.0324 26.8388 61.7874 28.2489C62.5634 29.659 63.6434 30.7455 65.0276 31.5083C66.4327 32.2712 68.079 32.6526 69.9664 32.6526Z" fill="#166CCE"/>
    <path d="M18.4245 36.7442C14.7682 36.7442 11.5546 35.9728 8.78377 34.43C6.01295 32.8871 3.85628 30.7461 2.31377 28.0068C0.771251 25.236 0 22.0245 0 18.3721C0 14.7197 0.771251 11.5239 2.31377 8.7846C3.85628 6.01383 6.01295 3.85704 8.78377 2.31422C11.5546 0.771408 14.7682 0 18.4245 0C22.0808 0 25.2944 0.771408 28.0652 2.31422C30.836 3.85704 32.9927 6.01383 34.5352 8.7846C36.0777 11.5239 36.849 14.7197 36.849 18.3721C36.849 22.0245 36.0777 25.236 34.5352 28.0068C32.9927 30.7461 30.836 32.8871 28.0652 34.43C25.2944 35.9728 22.0808 36.7442 18.4245 36.7442ZM18.4245 31.1712C21.0239 31.1712 23.2663 30.6516 25.1516 29.6126C27.0369 28.5736 28.4937 27.0937 29.522 25.1731C30.579 23.2524 31.1074 20.9854 31.1074 18.3721C31.1074 15.7588 30.579 13.4918 29.522 11.5711C28.4937 9.65047 27.0369 8.17062 25.1516 7.13158C23.2663 6.09255 21.0239 5.57303 18.4245 5.57303C15.8536 5.57303 13.6113 6.09255 11.6974 7.13158C9.8121 8.17062 8.34101 9.65047 7.2841 11.5711C6.25576 13.4918 5.74158 15.7588 5.74158 18.3721C5.74158 20.9854 6.25576 23.2524 7.2841 25.1731C8.34101 27.0937 9.8121 28.5736 11.6974 29.6126C13.6113 30.6516 15.8536 31.1712 18.4245 31.1712Z" fill="#166CCE"/>
    <path d="M95.6208 36.7442C92.9364 36.7442 90.5771 36.1778 88.5428 35.0451C86.5085 33.9124 84.9252 32.3405 83.7927 30.3294C82.6602 28.2952 82.094 25.9373 82.094 23.2558C82.094 20.5743 82.6602 18.228 83.7927 16.2169C84.9252 14.1827 86.5085 12.5992 88.5428 11.4665C90.5771 10.3338 92.9364 9.76744 95.6208 9.76744C98.3052 9.76744 100.665 10.3338 102.699 11.4665C104.733 12.5992 106.316 14.1827 107.449 16.2169C108.581 18.228 109.148 20.5743 109.148 23.2558C109.148 25.9373 108.581 28.2952 107.449 30.3294C106.316 32.3405 104.733 33.9124 102.699 35.0451C100.665 36.1778 98.3052 36.7442 95.6208 36.7442ZM95.6208 32.6526C97.5292 32.6526 99.1755 32.2712 100.56 31.5083C101.944 30.7455 103.013 29.659 103.768 28.2489C104.544 26.8388 104.932 25.1745 104.932 23.2558C104.932 21.3372 104.544 19.6728 103.768 18.2627C103.013 16.8526 101.944 15.7661 100.56 15.0033C99.1755 14.2405 97.5292 13.859 95.6208 13.859C93.7333 13.859 92.087 14.2405 90.6819 15.0033C89.2978 15.7661 88.2177 16.8526 87.4418 18.2627C86.6868 19.6728 86.3093 21.3372 86.3093 23.2558C86.3093 25.1745 86.6868 26.8388 87.4418 28.2489C88.2177 29.659 89.2978 30.7455 90.6819 31.5083C92.087 32.2712 93.7333 32.6526 95.6208 32.6526Z" fill="#166CCE"/>
</svg>
